<svg xmlns="http://www.w3.org/2000/svg" viewBox="0 0 166.89 202.1"><defs><style>.cls-1{fill:#1d8dac;}.cls-2{fill:#fff;}.cls-3,.cls-4,.cls-5{fill:#165571;}.cls-3{fill-rule:evenodd;}.cls-5{font-size:25.87px;font-family:Spartan-Black, Spartan;font-weight:800;letter-spacing:-0.09em;}.cls-6{letter-spacing:-0.1em;}.cls-7{letter-spacing:-0.1em;}.cls-8{letter-spacing:-0.09em;}.cls-9{letter-spacing:-0.09em;}.cls-10{letter-spacing:-0.1em;}</style></defs><title>Asset 4ranparent_logo</title><g id="Layer_2" data-name="Layer 2"><g id="Layer_1-2" data-name="Layer 1"><path class="cls-1" d="M25.68,140.94h120V91.41h-7V78.11h-6.87V58.89h-3.05c-1.35-7.32-5.29-13.07-10.31-15l-4.28-22.48-3.5,22.71a13.54,13.54,0,0,0-4.84,3.6c-2.31-9.13-8.06-16.57-15.16-20.45V22.94h-5V10.71a5.84,5.84,0,0,0-2.25-4.57L80.07,0,76.69,6.14a5.81,5.81,0,0,0-2.26,4.57V22.94H68.74V27.5C59.5,32.57,52.28,43.56,52.28,56.3c0,.9.06,1.69.06,2.59H47.1V78.11h-18v13.3H25.68Z"/><polygon class="cls-2" points="166.89 26.94 140.61 40.57 139.95 50.27 78.03 100.69 24.15 121.89 0 132.23 0.33 155.23 166.89 155.23 166.89 26.94"/><polygon class="cls-3" points="5.09 150.76 27.69 151.29 27.69 125.76 6.17 131.61 5.09 150.76"/><polygon class="cls-3" points="33.51 150.59 55.7 151.12 55.36 114.16 33.67 123.2 33.51 150.59"/><polygon class="cls-3" points="63.24 150.96 82.31 151.21 83.61 103.49 62.42 111.04 63.24 150.96"/><polygon class="cls-3" points="89.03 151.78 107.61 151.7 107.1 82.95 88.38 100.04 89.03 151.78"/><polygon class="cls-3" points="115.48 151.62 134.71 151.7 135.68 58.97 113.18 79.34 115.48 151.62"/><polygon class="cls-3" points="141.76 151.78 165.1 153.18 165.58 29.57 142.42 41.89 141.76 151.78"/><path class="cls-4" d="M51.4,160.11a2.61,2.61,0,0,1,1.7.48,2.41,2.41,0,0,1,.8,1.28,6.63,6.63,0,0,1,.22,1.78v4a.93.93,0,0,1-.27.68.87.87,0,0,1-.66.27.89.89,0,0,1-.67-.27.93.93,0,0,1-.27-.68v-4a3.26,3.26,0,0,0-.12-.92,1.19,1.19,0,0,0-.45-.66,1.49,1.49,0,0,0-.93-.25,1.92,1.92,0,0,0-1,.25,1.54,1.54,0,0,0-.63.66,2,2,0,0,0-.21.92v4a1,1,0,0,1-.26.68,1,1,0,0,1-1.34,0,1,1,0,0,1-.26-.68V158a.94.94,0,0,1,.26-.67.94.94,0,0,1,1.34,0,.94.94,0,0,1,.26.67v3.85l-.23,0a3.19,3.19,0,0,1,.39-.56,3.29,3.29,0,0,1,.6-.57,3.53,3.53,0,0,1,.79-.43A2.91,2.91,0,0,1,51.4,160.11Z"/><path class="cls-4" d="M66,168.73a4.65,4.65,0,0,1-2.29-.55,3.84,3.84,0,0,1-1.49-1.5,4.35,4.35,0,0,1-.52-2.14,4.7,4.7,0,0,1,.57-2.39,4,4,0,0,1,1.48-1.51,3.85,3.85,0,0,1,1.94-.53,3.5,3.5,0,0,1,1.5.33,4,4,0,0,1,1.25.89,4.32,4.32,0,0,1,.86,1.31,4.06,4.06,0,0,1,.32,1.58.79.79,0,0,1-.3.61,1,1,0,0,1-.65.23H62.75l-.47-1.55H68l-.34.31v-.42a1.44,1.44,0,0,0-.32-.81,2.18,2.18,0,0,0-.71-.56,2.06,2.06,0,0,0-.91-.21,3,3,0,0,0-.87.12,1.85,1.85,0,0,0-.7.42,2.1,2.1,0,0,0-.47.79,4,4,0,0,0-.17,1.26,2.74,2.74,0,0,0,.35,1.42,2.55,2.55,0,0,0,.9.89,2.44,2.44,0,0,0,1.18.3,3.71,3.71,0,0,0,.91-.09,2.22,2.22,0,0,0,.55-.23l.38-.22a1.14,1.14,0,0,1,.53-.14.74.74,0,0,1,.57.23.75.75,0,0,1,.22.54,1,1,0,0,1-.43.76,3.55,3.55,0,0,1-1.14.6A4.46,4.46,0,0,1,66,168.73Z"/><path class="cls-4" d="M84.08,160.11a.9.9,0,0,1,.67.27.93.93,0,0,1,.26.68v6.56a1,1,0,0,1-.26.68,1,1,0,0,1-1.34,0,.92.92,0,0,1-.26-.68v-.76l.34.14a.83.83,0,0,1-.22.49,2.93,2.93,0,0,1-.59.57,3.49,3.49,0,0,1-.88.47,3,3,0,0,1-1.09.2,3.62,3.62,0,0,1-1.94-.55,3.84,3.84,0,0,1-1.37-1.53,4.69,4.69,0,0,1-.51-2.22,4.78,4.78,0,0,1,.51-2.25,3.91,3.91,0,0,1,1.35-1.52,3.49,3.49,0,0,1,1.9-.55,3.67,3.67,0,0,1,1.22.2,3.57,3.57,0,0,1,1,.52,2.71,2.71,0,0,1,.64.62,1,1,0,0,1,.23.54l-.56.2v-1.13a.92.92,0,0,1,.26-.68A.9.9,0,0,1,84.08,160.11ZM80.94,167a2.09,2.09,0,0,0,1.2-.34,2.34,2.34,0,0,0,.8-.93,3.3,3.3,0,0,0,0-2.66,2.34,2.34,0,0,0-.8-.93,2.25,2.25,0,0,0-2.38,0,2.34,2.34,0,0,0-.8.93,3.3,3.3,0,0,0,0,2.66,2.34,2.34,0,0,0,.8.93A2.07,2.07,0,0,0,80.94,167Z"/><path class="cls-4" d="M95,167.62a.94.94,0,0,1-1,.95.86.86,0,0,1-.65-.27.93.93,0,0,1-.27-.68V158a.9.9,0,0,1,.27-.67,1,1,0,0,1,.68-.28.87.87,0,0,1,.66.28A.94.94,0,0,1,95,158Z"/><path class="cls-4" d="M103.19,160.42h3.68a.84.84,0,0,1,.62.25.86.86,0,0,1,.24.62.81.81,0,0,1-.24.6.88.88,0,0,1-.62.24h-3.68a.85.85,0,0,1-.87-.87.79.79,0,0,1,.25-.6A.84.84,0,0,1,103.19,160.42Zm1.66-1.94a.87.87,0,0,1,.66.27,1,1,0,0,1,.25.68v6.91a.63.63,0,0,0,.09.35.45.45,0,0,0,.23.2.71.71,0,0,0,.32.07.94.94,0,0,0,.34-.07.8.8,0,0,1,.36-.07.5.5,0,0,1,.39.2.8.8,0,0,1,.18.56.81.81,0,0,1-.47.71,2,2,0,0,1-1,.28,6.39,6.39,0,0,1-.72,0,2,2,0,0,1-.74-.27,1.6,1.6,0,0,1-.59-.64,2.64,2.64,0,0,1-.23-1.2v-7a.92.92,0,0,1,.95-1Z"/><path class="cls-4" d="M119.76,160.11a2.59,2.59,0,0,1,1.7.48,2.41,2.41,0,0,1,.8,1.28,6.63,6.63,0,0,1,.22,1.78v4a1,1,0,0,1-.26.68,1,1,0,0,1-1.34,0,1,1,0,0,1-.26-.68v-4a2.92,2.92,0,0,0-.13-.92,1.19,1.19,0,0,0-.45-.66,1.45,1.45,0,0,0-.93-.25,1.92,1.92,0,0,0-1,.25,1.46,1.46,0,0,0-.62.66,1.86,1.86,0,0,0-.21.92v4a.93.93,0,0,1-.27.68.89.89,0,0,1-.67.27.87.87,0,0,1-.66-.27.93.93,0,0,1-.27-.68V158a.9.9,0,0,1,.27-.67.87.87,0,0,1,.66-.28.94.94,0,0,1,.94.95v3.85l-.24,0a3.84,3.84,0,0,1,.39-.56,3.73,3.73,0,0,1,.61-.57,3.33,3.33,0,0,1,.79-.43A2.85,2.85,0,0,1,119.76,160.11Z"/><text class="cls-5" transform="translate(3.72 194.46)">d<tspan class="cls-6" x="16.53" y="0">a</tspan><tspan class="cls-7" x="32.88" y="0">t</tspan><tspan x="42.58" y="0">a s</tspan><tspan class="cls-8" x="75.03" y="0">c</tspan><tspan x="85.63" y="0">i</tspan><tspan class="cls-7" x="92.67" y="0">e</tspan><tspan class="cls-9" x="106.56" y="0">nc</tspan><tspan class="cls-10" x="133.72" y="0">e</tspan><tspan class="cls-9" x="147.56" y="0">s</tspan></text></g></g></svg>